<svg width="48" height="48" viewBox="0 0 48 48" fill="none" xmlns="http://www.w3.org/2000/svg">
<path d="M8.985 41.9297L6.42844 22.7606H41.7422L39.1856 41.9297H8.985Z" fill="#A5542B"/>
<path d="M41.7431 22.7587L39.1866 41.9287H35.7788L38.0578 24.8859H6.70876L6.42657 22.7587H41.7431Z" fill="#994D2C"/>
<path d="M46.4006 22.455V16.995L44.6081 7.96874C43.1081 7.61749 41.6081 7.3078 40.1081 7.03967L41.7319 17.0287H6.435L8.00156 7.09124C6.52594 7.34905 5.04562 7.64436 3.5625 7.96874L1.6875 17.3934V21.9506L4.52437 41.9287H8.98688L6.42562 22.7587H41.7431L39.1875 41.9287H43.6453L46.4062 22.455H46.4006Z" fill="#D6E4EF"/>
<path d="M41.7347 17.0297H6.435L8.00156 7.09221C18.8709 5.18628 29.5753 5.13471 40.1109 7.03971L41.7347 17.0297Z" fill="#A5542B"/>
<path d="M41.7347 17.0297H38.4703L37.1634 8.99998C27.5072 7.25436 17.7037 7.1503 7.76343 8.61748L8.00155 7.09405C18.8709 5.18811 29.5753 5.13655 40.1109 7.04155L41.7347 17.0297Z" fill="#B45F2F"/>
<path d="M46.8347 22.0209V16.9518L45.0534 7.9706C45.0324 7.86434 44.9805 7.76662 44.9044 7.6896C44.8282 7.61259 44.731 7.55968 44.625 7.53747L40.3716 6.6656C40.284 6.6476 40.1933 6.65114 40.1074 6.67592C40.0215 6.7007 39.9429 6.74598 39.8783 6.80786C39.8138 6.86974 39.7652 6.94637 39.7368 7.03117C39.7084 7.11596 39.701 7.20639 39.7153 7.29466L41.2266 17.4637H6.9422L8.40188 7.33872C8.41594 7.25116 8.40863 7.1615 8.38058 7.07737C8.35252 6.99325 8.30455 6.91715 8.24075 6.85555C8.17694 6.79396 8.0992 6.7487 8.01413 6.72362C7.92907 6.69855 7.83921 6.6944 7.7522 6.71154L3.56251 7.5356C3.45448 7.55593 3.35495 7.60799 3.27664 7.68513C3.19833 7.76228 3.14478 7.86101 3.12282 7.96872L1.26001 17.3512V21.9825L4.08095 41.8884C4.09947 42.02 4.16488 42.1404 4.26513 42.2275C4.36538 42.3147 4.49373 42.3627 4.62657 42.3628H8.85376C8.93226 42.3627 9.00984 42.3458 9.08129 42.3133C9.15275 42.2808 9.21644 42.2334 9.2681 42.1743C9.31975 42.1152 9.35819 42.0457 9.38083 41.9705C9.40347 41.8954 9.4098 41.8162 9.39938 41.7384L6.92251 22.3247H41.25L38.7741 41.7384C38.7636 41.8163 38.77 41.8955 38.7927 41.9707C38.8154 42.046 38.8539 42.1155 38.9057 42.1746C38.9574 42.2338 39.0212 42.2811 39.0928 42.3136C39.1644 42.346 39.2421 42.3628 39.3206 42.3628H43.5394C43.6723 42.3626 43.8006 42.3145 43.901 42.2274C44.0014 42.1403 44.067 42.02 44.0859 41.8884L46.8319 22.5159L46.8975 22.0209H46.8347Z" fill="#D6E4EF"/>
<path d="M2.50218 17.3503V21.9825L5.31936 41.8894C5.33886 42.0206 5.4047 42.1405 5.50496 42.2273C5.60522 42.3142 5.73328 42.3622 5.86593 42.3628H4.62468C4.49246 42.3621 4.3649 42.3139 4.26525 42.227C4.16561 42.1401 4.10052 42.0203 4.08186 41.8894L1.26093 21.9825V17.3503L3.1228 7.96875C3.14408 7.86156 3.19669 7.76311 3.27396 7.68584C3.35123 7.60857 3.44968 7.55597 3.55686 7.53468L7.7503 6.71437C7.8379 6.69629 7.92863 6.70037 8.01425 6.72623C8.09987 6.7521 8.17768 6.79894 8.24061 6.8625L4.79811 7.53562C4.6908 7.55625 4.59211 7.60853 4.51476 7.68572C4.4374 7.7629 4.38491 7.86148 4.36405 7.96875L2.50218 17.3503ZM39.7115 7.29281C39.6977 7.20477 39.7055 7.1147 39.7341 7.0303C39.7627 6.9459 39.8113 6.86971 39.8759 6.80823C39.9404 6.74676 40.0188 6.70184 40.1045 6.67733C40.1902 6.65282 40.2805 6.64944 40.3678 6.6675L41.1056 6.81937C41.0449 6.88079 40.9994 6.95566 40.9731 7.03792C40.9467 7.12019 40.94 7.20751 40.9537 7.29281L42.4687 17.4637H41.2219L39.7115 7.29281ZM40.5619 42.3628H39.3206C39.242 42.3626 39.1644 42.3456 39.0929 42.3129C39.0214 42.2803 38.9577 42.2329 38.906 42.1737C38.8543 42.1145 38.8158 42.045 38.793 41.9698C38.7703 41.8946 38.7638 41.8154 38.774 41.7375L41.25 22.3247H42.4875L40.0153 41.7375C40.0046 41.8155 40.0107 41.8949 40.0333 41.9703C40.0558 42.0457 40.0943 42.1154 40.1461 42.1747C40.1979 42.2339 40.2619 42.2814 40.3336 42.3139C40.4053 42.3463 40.4831 42.363 40.5619 42.3628Z" fill="#D6E4EF"/>
<path d="M7.44188 7.31252C7.45644 7.21957 7.44683 7.12444 7.414 7.03628C7.38116 6.94811 7.32619 6.86987 7.25438 6.80909L7.74938 6.71534C7.83632 6.69788 7.92618 6.70173 8.0113 6.72655C8.09642 6.75137 8.17427 6.79643 8.2382 6.85787C8.30213 6.91931 8.35024 6.99531 8.37841 7.07938C8.40659 7.16345 8.414 7.25309 8.40001 7.34065L6.94688 17.4375H5.97938L7.44188 7.31252ZM9.39938 41.7375C9.40964 41.8154 9.40318 41.8946 9.38043 41.9698C9.35768 42.0451 9.31917 42.1146 9.26745 42.1737C9.21574 42.2329 9.15201 42.2804 9.08052 42.313C9.00902 42.3456 8.9314 42.3626 8.85282 42.3628H4.6247C4.57483 42.3622 4.52529 42.3546 4.47751 42.3403H7.89282C7.97093 42.3399 8.04805 42.3229 8.1191 42.2904C8.19015 42.258 8.25351 42.2108 8.30499 42.1521C8.35647 42.0933 8.3949 42.0243 8.41774 41.9496C8.44059 41.875 8.44732 41.7963 8.43751 41.7188L5.96157 22.3031H40.2844V22.3247H6.92063L9.39938 41.7375ZM46.9003 22.021L46.8347 22.516L44.0869 41.8894C44.0682 42.0203 44.0031 42.1401 43.9035 42.227C43.8038 42.3139 43.6763 42.3621 43.5441 42.3628H39.3206C39.1952 42.3634 39.0735 42.3204 38.9762 42.2413C38.879 42.1621 38.8121 42.0517 38.7872 41.9288H42.5372C42.67 41.9282 42.7981 41.8802 42.8985 41.7934C42.999 41.7065 43.065 41.5866 43.0847 41.4553L45.8278 22.0819L45.8925 21.5869H45.8278V16.5169L44.0466 7.53565C44.0387 7.49181 44.0242 7.44944 44.0034 7.41002L44.625 7.53565C44.73 7.55955 44.8258 7.61307 44.9013 7.68984C44.9767 7.76662 45.0286 7.86342 45.0506 7.96877L46.8319 16.95V22.02L46.9003 22.021Z" fill="#D6E4EF"/>
<path d="M46.0181 17.0297H1.98094C1.26435 17.0297 0.683441 17.6106 0.683441 18.3272V21.464C0.683441 22.1806 1.26435 22.7615 1.98094 22.7615H46.0181C46.7347 22.7615 47.3156 22.1806 47.3156 21.464V18.3272C47.3156 17.6106 46.7347 17.0297 46.0181 17.0297Z" fill="#D6E4EF"/>
<path d="M47.3165 18.3272V21.4688C47.3164 21.6389 47.2827 21.8073 47.2174 21.9644C47.1521 22.1215 47.0565 22.2642 46.936 22.3843C46.8154 22.5044 46.6724 22.5995 46.5151 22.6643C46.3577 22.729 46.1892 22.7621 46.019 22.7616H1.98093C1.65982 22.7633 1.34964 22.6451 1.11118 22.43C0.872719 22.215 0.723175 21.9186 0.691864 21.5991C0.81359 21.6354 0.939838 21.6543 1.06686 21.6553H45.1069C45.2777 21.6553 45.4468 21.6216 45.6045 21.5562C45.7623 21.4908 45.9056 21.3949 46.0263 21.2741C46.147 21.1532 46.2427 21.0098 46.3079 20.8519C46.3731 20.694 46.4065 20.5249 46.4062 20.3541V17.22C46.4062 17.1769 46.4015 17.1263 46.3978 17.0859C46.664 17.1666 46.8972 17.3309 47.0627 17.5544C47.2282 17.778 47.3172 18.049 47.3165 18.3272Z" fill="#D6E4EF"/>
<path d="M28.4006 15.945H19.5984C19.3723 15.9494 19.1571 16.0434 19.0001 16.2064C18.8431 16.3693 18.7572 16.5879 18.7613 16.8141V24.735C18.757 24.9614 18.8428 25.1802 18.9998 25.3433C19.1567 25.5064 19.3721 25.6006 19.5984 25.605H28.4006C28.627 25.6006 28.8423 25.5064 28.9993 25.3433C29.1563 25.1802 29.2421 24.9614 29.2378 24.735V16.8141C29.2418 16.5879 29.1559 16.3693 28.999 16.2064C28.842 16.0434 28.6268 15.9494 28.4006 15.945Z" fill="#D6E4EF"/>
<path d="M29.2369 16.8122V24.7341C29.2393 24.8464 29.2195 24.958 29.1787 25.0627C29.1379 25.1673 29.0769 25.2629 28.9991 25.3439C28.9214 25.425 28.8284 25.4899 28.7256 25.5351C28.6227 25.5802 28.512 25.6046 28.3997 25.6069H19.5938C19.4093 25.6046 19.2307 25.5411 19.0862 25.4264C18.9416 25.3117 18.8392 25.1523 18.795 24.9732H27.5672C27.7934 24.969 28.0087 24.8752 28.1658 24.7124C28.323 24.5497 28.4091 24.3312 28.4053 24.105V16.1832C28.405 16.1022 28.3933 16.0218 28.3706 15.9441H28.3969C28.5091 15.9458 28.6198 15.9696 28.7228 16.0142C28.8258 16.0588 28.919 16.1232 28.997 16.2039C29.075 16.2845 29.1364 16.3798 29.1775 16.4842C29.2187 16.5885 29.2389 16.7 29.2369 16.8122Z" fill="#D6E4EF"/>
<path d="M25.4784 19.1625C25.479 18.9056 25.4127 18.6531 25.2861 18.4296C25.1594 18.2062 24.9767 18.0195 24.7561 17.8881C24.5354 17.7567 24.2843 17.685 24.0275 17.68C23.7707 17.6751 23.517 17.7371 23.2915 17.8599C23.0659 17.9828 22.8762 18.1622 22.7411 18.3807C22.6059 18.5991 22.5299 18.8489 22.5207 19.1056C22.5114 19.3623 22.5691 19.6169 22.6881 19.8446C22.8071 20.0722 22.9833 20.2649 23.1994 20.4037L22.9922 22.9687H25.0444L24.81 20.3972C25.0152 20.2631 25.1838 20.08 25.3005 19.8644C25.4172 19.6489 25.4783 19.4076 25.4784 19.1625Z" fill="#464646"/>
<path d="M42.8438 8.86877C42.7169 8.86877 42.593 8.90638 42.4875 8.97684C42.3821 9.04731 42.2999 9.14746 42.2513 9.26463C42.2028 9.3818 42.1901 9.51074 42.2148 9.63513C42.2396 9.75952 42.3007 9.87378 42.3903 9.96346C42.48 10.0531 42.5943 10.1142 42.7187 10.139C42.8431 10.1637 42.972 10.151 43.0892 10.1025C43.2063 10.0539 43.3065 9.97174 43.3769 9.86628C43.4474 9.76083 43.485 9.63685 43.485 9.51002C43.4848 9.34003 43.4171 9.17707 43.2969 9.05687C43.1767 8.93666 43.0138 8.86902 42.8438 8.86877Z" fill="#D6E4EF"/>
<path d="M43.2 9.40033H42.9525V9.15283H42.7341V9.40033H42.4866V9.61971H42.7341V9.86721H42.9525V9.61971H43.2V9.40033Z" fill="#38464F"/>
<path d="M43.6584 13.2891C43.5314 13.2889 43.4071 13.3264 43.3013 13.3969C43.1956 13.4674 43.1131 13.5677 43.0644 13.6851C43.0157 13.8024 43.0029 13.9316 43.0276 14.0563C43.0524 14.181 43.1135 14.2955 43.2034 14.3853C43.2933 14.4752 43.4078 14.5364 43.5325 14.5611C43.6571 14.5859 43.7863 14.5731 43.9037 14.5244C44.0211 14.4757 44.1214 14.3932 44.1919 14.2874C44.2623 14.1817 44.2999 14.0574 44.2997 13.9303C44.2997 13.7602 44.2321 13.5971 44.1119 13.4769C43.9916 13.3566 43.8285 13.2891 43.6584 13.2891Z" fill="#D6E4EF"/>
<path d="M44.0156 13.8215H43.7681V13.574H43.5487V13.8215H43.3012V14.04H43.5487V14.2875H43.7681V14.04H44.0156V13.8215Z" fill="#38464F"/>
<path d="M5.55281 8.92218C5.67968 8.92218 5.80369 8.95981 5.90917 9.03032C6.01464 9.10082 6.09683 9.20102 6.14534 9.31825C6.19384 9.43548 6.20649 9.56446 6.18167 9.68888C6.15685 9.81329 6.09568 9.92755 6.00591 10.0172C5.91614 10.1068 5.80179 10.1678 5.67734 10.1925C5.55288 10.2171 5.42392 10.2043 5.30676 10.1556C5.18961 10.1069 5.08952 10.0246 5.01917 9.91901C4.94883 9.81343 4.91138 9.68936 4.91156 9.56249C4.91181 9.39259 4.97948 9.22972 5.09971 9.10967C5.21994 8.98961 5.3829 8.92218 5.55281 8.92218Z" fill="#D6E4EF"/>
<path d="M5.19562 9.45374H5.44312V9.20624H5.66249V9.45374H5.90999V9.67311H5.66249V9.92061H5.44312V9.67311H5.19562V9.45374Z" fill="#38464F"/>
<path d="M4.73811 13.3434C4.86494 13.3434 4.98892 13.3811 5.09437 13.4515C5.19983 13.522 5.28202 13.6221 5.33055 13.7393C5.37909 13.8565 5.39178 13.9854 5.36704 14.1098C5.3423 14.2342 5.28123 14.3484 5.19154 14.4381C5.10186 14.5278 4.9876 14.5889 4.86321 14.6136C4.73882 14.6384 4.60989 14.6257 4.49272 14.5771C4.37554 14.5286 4.27539 14.4464 4.20493 14.341C4.13447 14.2355 4.09686 14.1115 4.09686 13.9847C4.09686 13.8146 4.16442 13.6515 4.28468 13.5313C4.40494 13.411 4.56804 13.3434 4.73811 13.3434Z" fill="#D6E4EF"/>
<path d="M4.38095 13.875H4.62845V13.6275H4.84689V13.875H5.09439V14.0944H4.84689V14.3419H4.62845V14.0944H4.38095V13.875Z" fill="#38464F"/>
<path d="M43.6584 24.9656C43.5316 24.9656 43.4076 25.0032 43.3022 25.0737C43.1967 25.1442 43.1145 25.2443 43.066 25.3615C43.0175 25.4787 43.0048 25.6076 43.0295 25.732C43.0542 25.8564 43.1153 25.9706 43.205 26.0603C43.2947 26.15 43.4089 26.2111 43.5333 26.2358C43.6577 26.2606 43.7867 26.2479 43.9038 26.1993C44.021 26.1508 44.1212 26.0686 44.1916 25.9631C44.2621 25.8577 44.2997 25.7337 44.2997 25.6069C44.2997 25.4368 44.2321 25.2737 44.1119 25.1535C43.9916 25.0332 43.8285 24.9656 43.6584 24.9656Z" fill="#D6E4EF"/>
<path d="M44.0156 25.4972H43.7681V25.2497H43.5487V25.4972H43.3012V25.7166H43.5487V25.9641H43.7681V25.7166H44.0156V25.4972Z" fill="#38464F"/>
<path d="M42.8437 31.9931C42.7167 31.9929 42.5924 32.0304 42.4866 32.1009C42.3809 32.1714 42.2984 32.2717 42.2497 32.3891C42.201 32.5065 42.1882 32.6357 42.2129 32.7603C42.2377 32.885 42.2988 32.9995 42.3887 33.0894C42.4786 33.1793 42.5931 33.2404 42.7178 33.2652C42.8424 33.2899 42.9716 33.2771 43.089 33.2284C43.2064 33.1797 43.3067 33.0972 43.3772 32.9915C43.4477 32.8857 43.4852 32.7614 43.485 32.6344C43.4847 32.4644 43.4171 32.3014 43.2969 32.1812C43.1767 32.061 43.0137 31.9934 42.8437 31.9931Z" fill="#D6E4EF"/>
<path d="M43.2 32.5256H42.9525V32.2781H42.7341V32.5256H42.4866V32.7441H42.7341V32.9916H42.9525V32.7441H43.2V32.5256Z" fill="#38464F"/>
<path d="M41.8453 39.0215C41.7185 39.0215 41.5945 39.0592 41.4891 39.1296C41.3836 39.2001 41.3014 39.3002 41.2529 39.4174C41.2044 39.5346 41.1916 39.6635 41.2164 39.7879C41.2411 39.9123 41.3022 40.0265 41.3919 40.1162C41.4816 40.2059 41.5958 40.267 41.7202 40.2917C41.8446 40.3165 41.9735 40.3038 42.0907 40.2552C42.2079 40.2067 42.308 40.1245 42.3785 40.0191C42.449 39.9136 42.4866 39.7896 42.4866 39.6628C42.4866 39.4927 42.419 39.3296 42.2988 39.2094C42.1785 39.0891 42.0154 39.0215 41.8453 39.0215Z" fill="#D6E4EF"/>
<path d="M42.2016 39.5531H41.9541V39.3056H41.7356V39.5531H41.4881V39.7725H41.7356V40.02H41.9541V39.7725H42.2016V39.5531Z" fill="#38464F"/>
<path d="M5.07282 24.9656C5.19961 24.9658 5.3235 25.0036 5.42882 25.0742C5.53415 25.1447 5.6162 25.245 5.66459 25.3621C5.71298 25.4793 5.72555 25.6082 5.7007 25.7326C5.67585 25.8569 5.6147 25.9711 5.52498 26.0607C5.43527 26.1502 5.32101 26.2112 5.19664 26.2359C5.07228 26.2606 4.94339 26.2478 4.82627 26.1992C4.70915 26.1507 4.60906 26.0685 4.53864 25.9631C4.46822 25.8576 4.43063 25.7337 4.43063 25.6069C4.43063 25.5226 4.44725 25.4391 4.47954 25.3613C4.51182 25.2834 4.55914 25.2127 4.61878 25.1531C4.67843 25.0936 4.74923 25.0464 4.82714 25.0142C4.90505 24.982 4.98853 24.9655 5.07282 24.9656Z" fill="#D6E4EF"/>
<path d="M4.71564 25.4972H4.96314V25.2497H5.18157V25.4972H5.42907V25.7166H5.18157V25.9641H4.96314V25.7166H4.71564V25.4972Z" fill="#38464F"/>
<path d="M5.8875 31.9931C6.01475 31.9922 6.1394 32.0291 6.24565 32.0991C6.35189 32.1692 6.43493 32.2692 6.48423 32.3865C6.53352 32.5038 6.54686 32.6331 6.52253 32.758C6.49821 32.8829 6.43733 32.9978 6.34761 33.0881C6.2579 33.1783 6.14339 33.2398 6.01863 33.2649C5.89387 33.29 5.76448 33.2774 5.64688 33.2288C5.52928 33.1802 5.42877 33.0977 5.35811 32.9919C5.28745 32.8861 5.24982 32.7616 5.25 32.6344C5.25 32.4649 5.31704 32.3024 5.43649 32.1823C5.55594 32.0621 5.71808 31.9941 5.8875 31.9931Z" fill="#D6E4EF"/>
<path d="M5.5303 32.5256H5.7778V32.2781H5.99624V32.5256H6.24374V32.7441H5.99624V32.9916H5.7778V32.7441H5.5303V32.5256Z" fill="#38464F"/>
<path d="M6.88593 39.0215C7.01272 39.0217 7.13661 39.0595 7.24194 39.1301C7.34727 39.2006 7.42931 39.3009 7.4777 39.418C7.52609 39.5352 7.53866 39.6641 7.51381 39.7885C7.48896 39.9128 7.42781 40.027 7.3381 40.1166C7.24838 40.2061 7.13412 40.2671 7.00975 40.2918C6.88539 40.3165 6.7565 40.3037 6.63938 40.2551C6.52226 40.2066 6.42217 40.1244 6.35175 40.019C6.28133 39.9135 6.24374 39.7896 6.24374 39.6628C6.24374 39.5785 6.26036 39.495 6.29265 39.4172C6.32493 39.3393 6.37225 39.2686 6.43189 39.209C6.49154 39.1495 6.56234 39.1023 6.64025 39.0701C6.71816 39.0379 6.80164 39.0214 6.88593 39.0215Z" fill="#D6E4EF"/>
<path d="M6.52875 39.5531H6.77625V39.3056H6.99469V39.5531H7.24219V39.7725H6.99469V40.02H6.77625V39.7725H6.52875V39.5531Z" fill="#38464F"/>
</svg>
